<svg id="Layer_1" data-name="Layer 1" xmlns="http://www.w3.org/2000/svg" xmlns:xlink="http://www.w3.org/1999/xlink" viewBox="0 0 512 512"><defs><linearGradient id="linear-gradient" x1="256" y1="15.84" x2="256" y2="605.52" gradientUnits="userSpaceOnUse"><stop offset="0" stop-color="#fa3f04"/><stop offset="0.21" stop-color="#f73d04"/><stop offset="0.38" stop-color="#ec3804"/><stop offset="0.55" stop-color="#db2f03"/><stop offset="0.71" stop-color="#c22203"/><stop offset="0.86" stop-color="#a21203"/><stop offset="1" stop-color="#7e0002"/></linearGradient><radialGradient id="radial-gradient" cx="251.7" cy="253.55" r="278.44" gradientUnits="userSpaceOnUse"><stop offset="0" stop-color="#fa3f04"/><stop offset="0.32" stop-color="#f83e04"/><stop offset="0.49" stop-color="#f03a04"/><stop offset="0.62" stop-color="#e23304"/><stop offset="0.74" stop-color="#cf2903"/><stop offset="0.84" stop-color="#b61c03"/><stop offset="0.94" stop-color="#980d02"/><stop offset="1" stop-color="#7e0002"/></radialGradient><linearGradient id="linear-gradient-2" x1="22.25" y1="255.34" x2="487.83" y2="255.34" xlink:href="#linear-gradient"/></defs><title>google-plus-other</title><g id="_Group_" data-name="&lt;Group&gt;"><circle id="_Path_" data-name="&lt;Path&gt;" cx="256" cy="256" r="255.02" fill="url(#linear-gradient)"/><path id="_Path_2" data-name="&lt;Path&gt;" d="M488.39,248.39c4.29,134.43-105.57,244.3-240,240-121.74-3.89-220.9-103-224.78-224.78-4.29-134.43,105.57-244.3,240-240C385.35,27.49,484.51,126.65,488.39,248.39Z" fill="url(#radial-gradient)"/></g><path id="_Compound_Path_" data-name="&lt;Compound Path&gt;" d="M255,488.13c-128.36,0-232.79-104.43-232.79-232.79S126.68,22.55,255,22.55,487.83,127,487.83,255.34,383.4,488.13,255,488.13Zm0-463.71C127.71,24.42,24.12,128,24.12,255.34S127.71,486.26,255,486.26,486,382.67,486,255.34,382.37,24.42,255,24.42Z" fill="url(#linear-gradient-2)"/><path d="M251.87,167a34.61,34.61,0,0,1,5.47,4.4,47.2,47.2,0,0,1,5.71,7.43,49.34,49.34,0,0,1,4.75,9.82,46.09,46.09,0,0,1,1.7,13.22q-.22,13.85-6.12,22.17a69.05,69.05,0,0,1-6.11,7.43q-3.58,3.39-7.61,6.92a35.4,35.4,0,0,0-4.27,5.42,12,12,0,0,0-2.31,7.3,9.61,9.61,0,0,0,2.37,6.68,50.83,50.83,0,0,0,3.91,4.41l8.76,7.18a88.37,88.37,0,0,1,14.31,14.73q5.79,8.2,6,21.41,0,18.77-16.58,33.26-17.17,15-49.59,15.49-27.13-.25-40.51-11.56-13.49-10.57-13.5-25.27,0-7.16,4.4-16Q167,292.7,178.15,286a80.51,80.51,0,0,1,26.34-9.55,200.54,200.54,0,0,1,22.71-2.26,55.41,55.41,0,0,1-5-7.85,17.94,17.94,0,0,1-2.54-9.74,14.64,14.64,0,0,1,1-5.7c.57-1.61,1.1-3.08,1.58-4.43a73.84,73.84,0,0,1-8.29.5q-20.62-.25-31.43-13-11.33-11.85-11.33-27.58,0-19,16-34.51,11-9.06,22.87-11.84a110.64,110.64,0,0,1,22-2.39h51.63L267.79,167Zm10,148.62a25.13,25.13,0,0,0-6.41-17.13q-6.79-6.93-21.21-17a57.53,57.53,0,0,0-5.8-.25,67.73,67.73,0,0,0-10.11.5,111.55,111.55,0,0,0-16.4,3.65q-2,.76-5.54,2.27a34,34,0,0,0-7.28,4.66,27,27,0,0,0-6,7.81A23.24,23.24,0,0,0,180.22,312q0,13.61,12.32,22.42,11.73,8.81,32.06,9.07,18.25-.26,27.86-8.07A24.41,24.41,0,0,0,261.84,315.64Zm-36-75.68a24.13,24.13,0,0,0,17-7.33,26.59,26.59,0,0,0,4.22-10.09,83.55,83.55,0,0,0,.57-8.71q0-15.26-7.81-30.79a34.37,34.37,0,0,0-9.64-12.11,24.83,24.83,0,0,0-14-4.67,22.72,22.72,0,0,0-17.45,8.46,31.74,31.74,0,0,0-5.6,19.18q0,14,8.19,29.15a39.88,39.88,0,0,0,10.25,12A22.55,22.55,0,0,0,225.85,240Z" fill="#fff"/><polygon points="353.68 185.91 326.59 185.91 326.59 158.81 313.47 158.81 313.47 185.91 286.38 185.91 286.38 199.03 313.47 199.03 313.47 226.12 326.59 226.12 326.59 199.03 353.68 199.03 353.68 185.91" fill="#fff"/><path id="_Path_3" data-name="&lt;Path&gt;" d="M324.07,185.7a433.15,433.15,0,0,1,161.21,30.92C466.85,107,371.52,23.48,256.66,23.48c-128,0-231.86,103.81-231.86,231.85A232.93,232.93,0,0,0,29.32,301,432.79,432.79,0,0,1,324.07,185.7Z" fill="#fff" opacity="0.1"/></svg>