<svg width="104" height="104" viewBox="0 0 104 104" fill="none" xmlns="http://www.w3.org/2000/svg" style="width: 350px; height: 350px; margin: 0px 20px; opacity: 1; transition: all 0.3s ease 0s;" data-testid="series-logo" aria-label="gatsby logo"><path d="M79.9402 29.4583L77.6329 31.458C71.4451 24.0346 62.2168 19.2627 52.0053 19.2627C37.8001 19.2627 25.8171 28.3696 21.105 41.056L20.6854 42.1859L21.5376 43.0381L60.9617 82.4622L61.792 83.2925L62.9021 82.9097C73.4741 79.2642 81.4607 70.1705 84.0024 59.2777L84.5402 56.9726H82.1733H67.5962V53.8728H87.7874C86.9532 69.6183 75.6995 82.8081 60.8177 86.6046L17.3952 43.1821C21.3418 27.7122 35.4386 16.1628 52.0053 16.1628C63.4205 16.1628 73.3758 21.4182 79.9402 29.4583ZM52.0053 2.12175C24.571 2.12175 2.13249 24.5602 2.13249 51.9945C2.13249 79.4288 24.571 101.867 52.0053 101.867C79.4396 101.867 101.878 79.4288 101.878 51.9945C101.878 24.5602 79.4396 2.12175 52.0053 2.12175ZM26.5936 77.4062C21.0097 71.8223 17.6024 64.7249 16.536 57.5444L46.5983 87.331C39.1984 86.1503 32.1315 82.9441 26.5936 77.4062Z" fill="white" stroke="white" stroke-width="3.7565"></path><path d="M89.3349 52.3376H65.2516V59.1869H81.7659C79.3576 69.461 71.7885 78.0227 61.8112 81.4474L22.2458 42.0635C26.3743 30.0771 38.0719 21.5154 51.4898 21.5154C61.8112 21.5154 71.1004 26.6524 76.9492 34.5292L82.1099 30.0771C75.229 20.8305 64.2195 14.666 51.4898 14.666C33.5993 14.666 18.4613 27.3374 14.6768 44.1183L60.0909 89.3242C76.6052 85.2145 89.3349 70.1459 89.3349 52.3376Z" fill="white"></path><path d="M14.6768 51.9941C14.6768 61.6721 18.343 71.0043 25.3422 78.2628C32.3414 85.5212 41.6737 89.3232 50.6727 89.3232L14.6768 51.9941Z" fill="white"></path><path d="M52.0053 4C25.6083 4 4.01074 25.5975 4.01074 51.9945C4.01074 78.3915 25.6083 99.9891 52.0053 99.9891C78.4023 99.9891 99.9998 78.3915 99.9998 51.9945C99.9998 25.5975 78.4023 4 52.0053 4ZM25.2655 78.7343C18.0663 71.5352 14.2953 61.9363 14.2953 52.6802L51.6625 89.7045C42.0635 89.3617 32.4646 85.9335 25.2655 78.7343ZM60.2329 88.6761L15.3237 43.7669C19.0947 26.9688 34.1787 14.2845 52.0053 14.2845C64.6895 14.2845 75.6597 20.4553 82.5161 29.7114L77.3738 34.168C71.5459 26.2832 62.2898 21.1409 52.0053 21.1409C38.6354 21.1409 27.3224 29.7114 22.8657 41.71L62.2898 81.1341C72.2315 77.7059 79.7735 69.1354 82.1733 58.8509H65.718V51.9945H89.7153C89.7153 69.8211 77.031 84.9051 60.2329 88.6761Z" fill="#663399"></path></svg>