<svg style="width: 350px; height: 350px; margin: 0px 20px; opacity: 1; transition: all 0.3s ease 0s;" data-testid="series-logo" viewBox="0 0 85 95" fill="none" xmlns="http://www.w3.org/2000/svg" aria-label="graphql logo"><mask id="a" width="85" height="94" x="-.272461" y=".933594" fill="#000" maskUnits="userSpaceOnUse"><path fill="#fff" d="M-.272461.933594h85v94h-85z"></path><path fill-rule="evenodd" d="M69.6009 72.1298c3.7158 2.136 8.4773.8678 10.6133-2.848 2.1582-3.7157.89-8.455-2.848-10.6132-.6565-.3774-1.3456-.6485-2.0471-.8186V37.1536c.7092-.1698 1.4059-.4427 2.0693-.824 3.7157-2.1583 4.984-6.8975 2.848-10.6133-2.1582-3.7157-6.8975-4.984-10.6132-2.848-.6689.3885-1.2584.8606-1.763 1.3953L49.9445 13.9197c.209-.7034.3212-1.4488.3212-2.2209 0-4.29421-3.471-7.76521-7.7653-7.76521-4.2942 0-7.7652 3.471-7.7652 7.76521 0 .7678.1109 1.5092.3176 2.2091L17.1322 24.2547c-.5028-.531-1.0894-1-1.7545-1.3864-3.7158-2.136-8.4773-.8677-10.6133 2.848-2.136 3.7158-.86775 8.4773 2.848 10.6133.66338.3813 1.36009.6542 2.06924.824v20.696c-.70104.1701-1.39001.4413-2.04699.819-3.71575 2.1582-4.984 6.8975-2.848 10.6132 2.136 3.7158 6.87525 4.984 10.61325 2.848.6575-.3819 1.2384-.8446 1.7373-1.3681L35.049 81.1034c-.2043.6961-.3138 1.433-.3138 2.1959 0 4.2943 3.471 7.7653 7.7652 7.7653 4.2943 0 7.7653-3.4933 7.7653-7.7653 0-.8552-.1377-1.6777-.3921-2.4467l17.807-10.2813c.5381.6042 1.1807 1.1334 1.9203 1.5585zm-3.6589-4.8719c.0421.1713.0899.341.1434.509l-17.842 10.3014c-1.4194-1.5578-3.4654-2.5342-5.743-2.5342-2.1996 0-4.1832.9107-5.595 2.3762L18.9761 67.5585c.0289-.0996.0558-.1998.0807-.3006H65.942zm2.1772-7.4845c-.5246.5003-.9869 1.0831-1.3663 1.7432-.3775.6567-.6487 1.3461-.8188 2.0479h-46.867c-.1701-.7014-.4414-1.3907-.8192-2.0479-.3811-.6562-.8428-1.236-1.365-1.7343L40.337 19.1597c.6865.1982 1.4124.3044 2.1634.3044.753 0 1.4808-.1067 2.1689-.3059l23.4499 40.6152zm3.5064-1.9159c-.1009.0248-.2014.0516-.3013.0804L47.8691 17.3134c.0707-.0677.1401-.1366.2082-.2069l17.9593 10.3691c-.5547 1.9494-.3509 4.1108.7386 6.006 1.0931 1.9017 2.874 3.1623 4.8504 3.6536v20.7223zM36.9149 17.0977c.0722.0747.1458.1479.2209.2196L13.6807 57.9416c-.1013-.0294-.2032-.0568-.3056-.0821V37.1352c1.9765-.4913 3.7574-1.7519 4.8506-3.6536 1.0916-1.899 1.2941-4.0654.7351-6.0179l17.9541-10.366z" clip-rule="evenodd"></path></mask><path fill="#E10098" fill-rule="evenodd" d="M69.6009 72.1298c3.7158 2.136 8.4773.8678 10.6133-2.848 2.1582-3.7157.89-8.455-2.848-10.6132-.6565-.3774-1.3456-.6485-2.0471-.8186V37.1536c.7092-.1698 1.4059-.4427 2.0693-.824 3.7157-2.1583 4.984-6.8975 2.848-10.6133-2.1582-3.7157-6.8975-4.984-10.6132-2.848-.6689.3885-1.2584.8606-1.763 1.3953L49.9445 13.9197c.209-.7034.3212-1.4488.3212-2.2209 0-4.29421-3.471-7.76521-7.7653-7.76521-4.2942 0-7.7652 3.471-7.7652 7.76521 0 .7678.1109 1.5092.3176 2.2091L17.1322 24.2547c-.5028-.531-1.0894-1-1.7545-1.3864-3.7158-2.136-8.4773-.8677-10.6133 2.848-2.136 3.7158-.86775 8.4773 2.848 10.6133.66338.3813 1.36009.6542 2.06924.824v20.696c-.70104.1701-1.39001.4413-2.04699.819-3.71575 2.1582-4.984 6.8975-2.848 10.6132 2.136 3.7158 6.87525 4.984 10.61325 2.848.6575-.3819 1.2384-.8446 1.7373-1.3681L35.049 81.1034c-.2043.6961-.3138 1.433-.3138 2.1959 0 4.2943 3.471 7.7653 7.7652 7.7653 4.2943 0 7.7653-3.4933 7.7653-7.7653 0-.8552-.1377-1.6777-.3921-2.4467l17.807-10.2813c.5381.6042 1.1807 1.1334 1.9203 1.5585zm-3.6589-4.8719c.0421.1713.0899.341.1434.509l-17.842 10.3014c-1.4194-1.5578-3.4654-2.5342-5.743-2.5342-2.1996 0-4.1832.9107-5.595 2.3762L18.9761 67.5585c.0289-.0996.0558-.1998.0807-.3006H65.942zm2.1772-7.4845c-.5246.5003-.9869 1.0831-1.3663 1.7432-.3775.6567-.6487 1.3461-.8188 2.0479h-46.867c-.1701-.7014-.4414-1.3907-.8192-2.0479-.3811-.6562-.8428-1.236-1.365-1.7343L40.337 19.1597c.6865.1982 1.4124.3044 2.1634.3044.753 0 1.4808-.1067 2.1689-.3059l23.4499 40.6152zm3.5064-1.9159c-.1009.0248-.2014.0516-.3013.0804L47.8691 17.3134c.0707-.0677.1401-.1366.2082-.2069l17.9593 10.3691c-.5547 1.9494-.3509 4.1108.7386 6.006 1.0931 1.9017 2.874 3.1623 4.8504 3.6536v20.7223zM36.9149 17.0977c.0722.0747.1458.1479.2209.2196L13.6807 57.9416c-.1013-.0294-.2032-.0568-.3056-.0821V37.1352c1.9765-.4913 3.7574-1.7519 4.8506-3.6536 1.0916-1.899 1.2941-4.0654.7351-6.0179l17.9541-10.366z" clip-rule="evenodd"></path><path fill="#fff" d="M80.2142 69.2818L77.62 67.7751l-.0067.0116 2.6009 1.4951zm-10.6133 2.848l1.4951-2.6008-1.4951 2.6008zm7.7653-13.4612l1.5-2.598-.0049-.0029-1.4951 2.6009zm-2.0471-.8186h-3v2.3594l2.2929.5561.7071-2.9155zm0-20.6964l-.6984-2.9176-2.3016.551v2.3666h3zm2.0693-.824l1.4951 2.6009.0117-.0068-1.5068-2.5941zm2.848-10.6133l2.6009-1.4951-.0067-.0116-2.5942 1.5067zm-10.6132-2.848l-1.4952-2.6009-.0116.0068 1.5068 2.5941zm-1.763 1.3953l-1.5001 2.5981 2.054 1.1858 1.6278-1.7248-2.1817-2.0591zM49.9445 13.9197l-2.8758-.8544-.6741 2.2689 2.0499 1.1835 1.5-2.598zm-14.8917-.0118l1.5001 2.5981 2.0465-1.1816-.6694-2.2663-2.8772.8498zM17.1322 24.2547l-2.1784 2.0626 1.6279 1.7194 2.0506-1.1839-1.5001-2.5981zm-1.7545-1.3864l1.5068-2.5941-.0117-.0067-1.4951 2.6008zm-10.6133 2.848l-2.60088-1.4951 2.60088 1.4951zm2.848 10.6133l1.49513-2.6009-1.49513 2.6009zm2.06924.824h2.99996V34.787l-2.3015-.551-.69846 2.9176zm0 20.696l.70746 2.9154 2.2925-.5563v-2.3591H9.68164zm-2.04699.819l-1.49513-2.6009-.01165.0067 1.50678 2.5942zm-2.848 10.6132L2.18577 70.777l2.60088-1.4952zm10.61325 2.848l1.4884 2.6048.0092-.0053.0092-.0053-1.5068-2.5942zm1.7373-1.3681l1.5-2.5981-2.0437-1.18-1.6281 1.7085 2.1718 2.0696zM35.049 81.1034l2.8786.8447.6642-2.2634-2.0428-1.1794-1.5 2.5981zm14.8246-.2508l-1.5001-2.5981-2.1154 1.2214.7673 2.319 2.8482-.9423zm17.807-10.2813l2.2403-1.9952-1.6247-1.8244-2.1157 1.2215 1.5001 2.5981zm-1.5952-2.8044l1.5 2.5981 2.0914-1.2075-.7329-2.301-2.8585.9104zm-.1434-.509l2.9135-.7154-.5611-2.2846H65.942v3zM48.2434 78.0683l-2.2176 2.0205 1.6264 1.7849 2.0912-1.2073-1.5-2.5981zm-11.338-.158l-1.5 2.5981 2.0324 1.1734 1.6282-1.6902-2.1606-2.0813zM18.9761 67.5585l-2.8814-.8349-.6542 2.2577 2.0356 1.1753 1.5-2.5981zm.0807-.3006v-3h-2.349l-.5634 2.2804 2.9124.7196zm47.6961-5.7413l2.6009 1.4951-2.6009-1.4951zm1.3663-1.7432l2.0704 2.1711 1.7072-1.6281-1.1795-2.043-2.5981 1.5zm-2.1851 3.7911v3h2.3596l.556-2.2933-2.9156-.7067zm-46.867 0l-2.9155.707.5561 2.293h2.3594v-3zm-.8192-2.0479l2.6009-1.4951-.0067-.0117-2.5942 1.5068zm-1.365-1.7343l-2.5981-1.5-1.1793 2.0425 1.7065 1.6281 2.0709-2.1706zM40.337 19.1597l.832-2.8823-2.256-.6512-1.1741 2.0335 2.5981 1.5zm4.3323-.0015l2.598-1.5001-1.1749-2.035-2.2573.6534.8342 2.8817zm26.655 38.7797l-2.598 1.5 1.1734 2.0324 2.2551-.6497-.8305-2.8827zm.3013-.0804l.7152 2.9135 2.2848-.5608v-2.3527h-3zM47.8691 17.3134l-2.0735-2.1681-1.7024 1.6281 1.1778 2.04 2.5981-1.5zm.2082-.2069l1.5001-2.598-2.0255-1.1694-1.6282 1.6789 2.1536 2.0885zm17.9593 10.3691l2.8854.8211.6402-2.2496-2.0256-1.1695-1.5 2.598zm.7386 6.006l-2.6009 1.4951 2.6009-1.4951zm4.8504 3.6536h3v-2.3456l-2.2763-.5658-.7237 2.9114zM37.1358 17.3173l2.5981 1.5 1.1787-2.0415-1.7049-1.6281-2.0719 2.1696zm-.2209-.2196l2.157-2.0851-1.6282-1.6843-2.0288 1.1713 1.5 2.5981zM13.6807 57.9416l-.8365 2.881 2.2586.6558 1.176-2.0368-2.5981-1.5zm-.3056-.0821h-3v2.3492l2.2807.5633.7193-2.9125zm0-20.7243l-.7236-2.9114-2.2764.5658v2.3456h3zm4.8506-3.6536l2.6008 1.4951-2.6008-1.4951zm.7351-6.0179l-1.5-2.5981-2.0289 1.1715.6448 2.2523 2.8841-.8257zm58.6525 40.323c-1.3044 2.2691-4.2277 3.0584-6.5173 1.7423l-2.9902 5.2017c5.1419 2.9559 11.7416 1.2087 14.7092-3.9537l-5.2017-2.9903zm-1.7472-6.5201c2.3077 1.3325 3.0743 4.2353 1.7539 6.5085l5.1883 3.0135c2.9961-5.1583 1.2262-11.734-3.9421-14.718l-3.0001 5.196zm-1.2541-.5011c.4285.1039.8519.2699 1.259.504l2.9903-5.2018c-.9058-.5206-1.8605-.8968-2.835-1.1332l-1.4143 5.831zm3.7071-2.9155V37.1536h-6V57.85h6zm-2.4258-24.1213c-.4115.2365-.8395.4036-1.2726.5073l1.3969 5.8351c.9852-.2358 1.9506-.6144 2.8659-1.1406l-2.9902-5.2018zm1.7422-6.5172c1.3114 2.2813.5363 5.1937-1.7539 6.5239l3.0136 5.1883c5.1413-2.9862 6.9027-9.5523 3.9421-14.7025l-5.2018 2.9903zm-6.5172-1.7423c2.2813-1.3114 5.1938-.5362 6.524 1.7539l5.1883-3.0135c-2.9863-5.1414-9.5524-6.9027-14.7026-3.9421l2.9903 5.2017zm-1.0764.8535c.3085-.3268.6711-.6181 1.088-.8602l-3.0135-5.1883c-.9207.5348-1.7371 1.1877-2.4379 1.9303l4.3634 4.1182zm-.6817-4.6572L51.4445 11.3216l-3 5.1961 17.9156 10.344 3.0001-5.1962zm-22.0945-9.9667c0 .48-.0696.9378-.197 1.3665l5.7516 1.7087c.2906-.9781.4454-2.0111.4454-3.0752h-6zm-4.7653-4.76521c2.6374 0 4.7653 2.12786 4.7653 4.76521h6c0-5.95106-4.8142-10.765206-10.7653-10.765206V6.93359zm-4.7652 4.76521c0-2.63735 2.1278-4.76521 4.7652-4.76521V.933594c-5.9511 0-10.7652 4.814146-10.7652 10.765206h6zm.1948 1.3593c-.126-.4266-.1948-.8819-.1948-1.3593h-6c0 1.0581.153 2.0856.4405 3.059l5.7543-1.6997zm-4.3772-1.7482L15.6322 21.6567l3.0001 5.1961L36.5529 16.506l-3.0001-5.1961zM13.8709 25.4625c.4146.2408.7755.5302 1.0829.8548l4.3569-4.1252c-.6982-.7374-1.5107-1.3861-2.4263-1.9179l-3.0135 5.1883zm-6.50561 1.749c1.3044-2.2691 4.22771-3.0584 6.51721-1.7423l2.9903-5.2017c-5.142-2.9559-11.74168-1.2087-14.70928 3.9537l5.20177 2.9903zm1.74224 6.5172c-2.26912-1.3044-3.05839-4.2277-1.74224-6.5172l-5.20177-2.9903C-.792336 29.3632.954896 35.9629 6.11728 38.9305l2.99025-5.2018zm1.27257.5073c-.4331-.1037-.86115-.2708-1.27257-.5073l-2.99025 5.2018c.91533.5262 1.8807.9047 2.86587 1.1406l1.39695-5.8351zm-3.69846 2.9176v20.696h5.99996v-20.696H6.68164zm2.44814 24.1159c.40824-.2347.83169-.4008 1.25932-.5045l-1.41488-5.8308c-.9745.2365-1.92898.6129-2.83469 1.1335l2.99025 5.2018zm-1.74224 6.5172c-1.31142-2.2813-.53625-5.1938 1.75389-6.524l-3.01356-5.1883C.986512 59.0607-.774817 65.6268 2.18577 70.777l5.20177-2.9903zm6.52396 1.7384c-2.3169 1.3239-5.22065.5288-6.52396-1.7384L2.18577 70.777c2.96869 5.1642 9.54343 6.9057 14.70253 3.9576l-2.9768-5.2095zm1.0539-.833c-.305.32-.6624.6055-1.0723.8436l3.0136 5.1883c.9051-.5257 1.7094-1.1656 2.4023-1.8927l-4.3436-4.1392zm.6718 4.6676L33.549 83.7014l3-5.1961-17.9118-10.3417-3 5.1961zm22.098 9.9396c0-.4743.0679-.9269.1924-1.3512l-5.7572-1.6895c-.2841.968-.4352 1.9893-.4352 3.0407h6zm4.7652 4.7653c-2.6374 0-4.7652-2.1279-4.7652-4.7653h-6c0 5.9512 4.8141 10.7653 10.7652 10.7653v-6zm4.7653-4.7653c0 2.6208-2.1335 4.7653-4.7653 4.7653v6c5.9567 0 10.7653-4.842 10.7653-10.7653h-6zm-.2403-1.5044c.155.4684.2403.973.2403 1.5044h6c0-1.179-.1901-2.3195-.544-3.3891l-5.6963 1.8847zm4.3482 1.6557l17.807-10.2813-3.0001-5.1961-17.807 10.2813 3.0001 5.1961zM71.096 69.529c-.4564-.2624-.8483-.5859-1.1751-.9529l-4.4807 3.9904c.7494.8415 1.6428 1.5763 2.6656 2.1642l2.9902-5.2017zm-2.1521-2.6725c-.033-.1036-.0625-.2084-.0884-.314l-5.8269 1.4309c.0582.2368.1243.4716.1983.7039l5.717-1.8208zM49.7434 80.6664l17.842-10.3014-3-5.1961-17.842 10.3013 3 5.1962zm-7.243-2.1323c1.4009 0 2.6522.5963 3.5254 1.5547l4.4351-4.041c-1.9655-2.1572-4.8062-3.5137-7.9605-3.5137v6zm-3.4344 1.4575c.8681-.9012 2.0809-1.4575 3.4344-1.4575v-6c-3.0456 0-5.8001 1.265-7.7555 3.2949l4.3211 4.1626zm-21.5899-9.835l17.9293 10.3518 3.0001-5.1962-17.9293-10.3518-3.0001 5.1962zm-1.3317-3.6183c-.0154.0621-.0319.1239-.0497.1853l5.7629 1.6698c.04-.1379.0772-.2765.1116-.4158l-5.8248-1.4393zm49.7976-2.2804H19.0568v6H65.942v-6zm3.4118-1.2462c.2343-.4076.5172-.7634.8358-1.0672l-4.1408-4.3421c-.7305.6966-1.3722 1.5065-1.8968 2.4191l5.2018 2.9902zm-.5041 1.2595c.1039-.4286.2699-.8522.5041-1.2595l-5.2018-2.9902c-.5209.9061-.8971 1.8612-1.1335 2.8362l5.8312 1.4135zm-49.7826 2.2933h46.867v-6h-46.867v6zm-3.4201-3.5528c.2348.4084.4009.8321.5046 1.2598l5.831-1.4141c-.2364-.9749-.6129-1.9298-1.1338-2.8359l-5.2018 2.9902zm-.835-1.0588c.3193.3046.6042.6614.8418 1.0705l5.1883-3.0136c-.5247-.9033-1.1631-1.7062-1.8884-2.3981l-4.1417 4.3412zm22.9269-44.2932L14.2848 58.2823l5.1961 3L42.935 20.6598l-5.1961-3.0001zm4.7615-1.1956c-.467 0-.9129-.0659-1.3314-.1867l-1.6641 5.7647c.9546.2755 1.9605.422 2.9955.422v-6zm1.3347-.1876c-.4194.1214-.8664.1876-1.3347.1876v6c1.0378 0 2.0463-.1473 3.0031-.4242l-1.6684-5.7634zm26.8822 41.9969l-23.45-40.6153-5.1961 3.0001 23.4499 40.6153 5.1962-3.0001zm1.4375 2.5472c.0617-.0177.1237-.0343.186-.0496l-1.4303-5.827c-.1396.0343-.2786.0713-.4167.1111l1.661 5.7655zM45.271 18.8134l23.4553 40.6245 5.1961-3.0001-23.4553-40.6245-5.1961 3.0001zm.6527-3.7954c-.0419.0433-.0846.0857-.1281.1273l4.147 4.3362c.0979-.0937.1941-.1892.2884-.2864l-4.3073-4.1771zm21.6129 9.8596L49.5774 14.5085l-3.0001 5.1961 17.9593 10.3691 3-5.1961zm1.8394 7.1089c-.67-1.1657-.7959-2.4882-.454-3.6898l-5.7708-1.6422c-.7676 2.6973-.4857 5.6976 1.0231 8.3222l5.2017-2.9902zm2.9733 2.2373c-1.2207-.3035-2.3055-1.0756-2.9733-2.2373l-5.2017 2.9902c1.5185 2.6417 3.9955 4.3907 6.7276 5.0699l1.4474-5.8228zm2.2763 23.6337V37.1352h-6v20.7223h6zM39.2077 15.1477c-.0461-.0441-.0915-.0892-.1358-.1351l-4.314 4.1702c.1.1034.202.2048.306.3041l4.1438-4.3392zm-4.6699.6696L11.0827 56.4415l5.1961 3.0001 23.4551-40.6243-5.1961-3zM12.6558 60.772c.0632.0156.126.0325.1884.0506l1.6731-5.762c-.1402-.0407-.2812-.0786-.4228-.1136l-1.4387 5.825zm3.7193-2.9125V37.1352h-6v20.7243h6zm-.7503-25.873c-.6678 1.1617-1.7526 1.9338-2.9733 2.2373l1.4473 5.8228c2.7322-.6791 5.2092-2.4282 6.7277-5.0699l-5.2017-2.9902zm.4519-3.6971c.3445 1.2035.2195 2.5291-.4519 3.6971l5.2017 2.9902c1.5119-2.63 1.7918-5.6372 1.0184-8.3387l-5.7682 1.6514zm4.3841 1.7724l17.9541-10.366-3-5.1962-17.9541 10.366 3 5.1962z" mask="url(#a)"></path></svg>