<svg width="72" height="98" viewBox="0 0 72 98" fill="none" xmlns="http://www.w3.org/2000/svg" style="width: 500px; height: 500px; margin: 0px 20px; opacity: 1; transition: all 0.3s ease 0s;" data-testid="series-logo" aria-label="html logo"><path d="M8.25241 87.5216L8.34463 88.5559L9.34524 88.8337L35.5006 96.0947L35.9016 96.206L36.3026 96.0948L62.5302 88.8235L63.5312 88.546L63.6235 87.5114L69.4585 22.147L69.6043 20.5137H67.9644H3.91797H2.27829L2.4239 22.1469L8.25241 87.5216Z" fill="#E44D26" stroke="white" stroke-width="3"></path><path d="M9.87695 2.74805H8.37692L8.37695 4.24808L8.37725 16.4387L8.37728 17.9387H9.87725H13.9515H15.4515V16.4387V13.8566H16.1787V16.4387V17.9387H17.6787H21.7533H23.2533V16.4387V9.79083H23.525H25.612V16.4387V17.9387H27.112H31.1871H32.6871V16.4387V9.79083H34.7757H35.0609V16.4387V17.9387H36.5609H40.5478H42.0478V16.4387V15.4747L42.0937 15.5457L42.5371 16.2307H43.353H43.423H44.2393L44.6826 15.5453L44.7264 15.4776V16.4387V17.9387H46.2264H50.2849H50.8124H51.7849H52.3124H62.1185H63.6185V16.4387V12.4093V10.9093H62.1185H57.8881V4.24805V2.74805H56.3881H52.3124H51.7849H50.8124H50.2849H46.0345H45.1922L44.7537 3.46732L43.4229 5.65064L42.0904 3.46678L41.6519 2.74805H40.8099H36.561H36.5609H36.2757H35.0609H34.7757H23.525H23.2533H22.025H21.7533H17.6787H16.1787V4.24805V6.77366H15.4515V4.24805V2.74805H13.9515H9.87695Z" fill="black" stroke="white" stroke-width="3"></path><path d="M35.9414 89.0917L57.1344 83.2159L62.121 27.3594H35.9414V89.0917Z" fill="#F16529"></path><path d="M35.9413 51.6055H25.3317L24.5988 43.395H35.9413V35.377H15.8359L16.0281 37.528L17.9987 59.6232H35.9413V51.6055ZM35.9413 72.4287L35.9061 72.4383L26.9765 70.027L26.4056 63.6325H18.357L19.4805 76.2218L35.9046 80.7812L35.9413 80.7709V72.4287Z" fill="#EBEBEB"></path><path d="M35.9141 51.6055V59.6232H45.7874L44.8565 70.022L35.9141 72.4354V80.777L52.3513 76.2219L52.4715 74.8668L54.3559 53.7586L54.5516 51.6055H52.3912H35.9141ZM35.9141 35.377V43.395H55.2813L55.4418 41.5927L55.8072 37.528L55.999 35.377H35.9141Z" fill="white"></path></svg>