<svg width="96" height="96" viewBox="0 0 96 96" fill="none" xmlns="http://www.w3.org/2000/svg" style="width: 88px; height: 88px; margin: 0px 20px; opacity: 1; transition: all 0.3s ease 0s;" data-testid="series-logo" aria-label="javascript logo"><path d="M93.6606 4.19336V2.22039H91.6877H4H2.02703V4.19336V91.881V93.854H4H91.6877H93.6606V91.881V4.19336Z" fill="#F7DF1E" stroke="white" stroke-width="3.94595"></path><path d="M62.9043 72.7006C64.6706 75.5845 66.9686 77.7042 71.0328 77.7042C74.4472 77.7042 76.6283 75.9978 76.6283 73.64C76.6283 70.8145 74.3873 69.8138 70.6293 68.1699L68.5693 67.2861C62.6232 64.7529 58.6731 61.5795 58.6731 54.8707C58.6731 48.6909 63.3818 43.9863 70.7406 43.9863C75.9795 43.9863 79.746 45.8096 82.4602 50.5837L76.0436 54.7036C74.6308 52.1704 73.1067 51.1724 70.7406 51.1724C68.3271 51.1724 66.7975 52.7035 66.7975 54.7036C66.7975 57.1755 68.3285 58.1763 71.8638 59.7074L73.9238 60.5899C80.925 63.5921 84.8778 66.6528 84.8778 73.5343C84.8778 80.953 79.0501 85.0172 71.2236 85.0172C63.5711 85.0172 58.6271 81.3704 56.2081 76.5908L62.9043 72.7006ZM33.7963 73.4145C35.0906 75.7111 36.2683 77.6528 39.0993 77.6528C41.8065 77.6528 43.5143 76.5936 43.5143 72.4751V44.4567H51.7541V72.5864C51.7541 81.1186 46.7518 85.0018 39.45 85.0018C32.8526 85.0018 29.0319 81.5876 27.0889 77.4752L33.7963 73.4145Z" fill="black"></path></svg>