<svg style="width: 400px; height: 400px; margin: 0px 20px; opacity: 1; transition: all 0.3s ease 0s;" data-testid="series-logo" width="114" height="102" viewBox="0 0 114 102" fill="none" xmlns="http://www.w3.org/2000/svg" aria-label="react logo"><mask id="path-1-outside-1" maskUnits="userSpaceOnUse" x="0.517578" y="-0.892578" width="113" height="103" fill="black"><rect fill="white" x="0.517578" y="-0.892578" width="113" height="103"></rect><path fill-rule="evenodd" clip-rule="evenodd" d="M25.5724 68.9942C22.4762 83.317 24.1249 94.6241 30.383 98.1663C36.5728 101.67 46.771 97.2937 57.1918 87.4161C67.7796 97.0773 78.1375 101.246 84.285 97.7171C90.5012 94.1486 91.9057 82.9997 88.6186 68.8449C102.452 64.4785 111.362 57.5187 111.362 50.3748C111.362 43.2205 102.426 36.4636 88.5582 32.2654C91.7356 18.0475 90.1529 6.92641 83.9979 3.44259C77.9121 -0.00204206 67.5411 4.12434 56.9655 13.8452C46.4391 4.03648 36.1795 -0.171695 30.0947 3.32145C23.9826 6.83024 22.2698 18.0022 25.3434 32.212C11.4115 36.4505 2.51758 43.3041 2.51758 50.3748C2.51758 57.4841 11.509 64.5934 25.5724 68.9942Z"></path></mask><path fill-rule="evenodd" clip-rule="evenodd" d="M25.5724 68.9942C22.4762 83.317 24.1249 94.6241 30.383 98.1663C36.5728 101.67 46.771 97.2937 57.1918 87.4161C67.7796 97.0773 78.1375 101.246 84.285 97.7171C90.5012 94.1486 91.9057 82.9997 88.6186 68.8449C102.452 64.4785 111.362 57.5187 111.362 50.3748C111.362 43.2205 102.426 36.4636 88.5582 32.2654C91.7356 18.0475 90.1529 6.92641 83.9979 3.44259C77.9121 -0.00204206 67.5411 4.12434 56.9655 13.8452C46.4391 4.03648 36.1795 -0.171695 30.0947 3.32145C23.9826 6.83024 22.2698 18.0022 25.3434 32.212C11.4115 36.4505 2.51758 43.3041 2.51758 50.3748C2.51758 57.4841 11.509 64.5934 25.5724 68.9942Z" fill="white"></path><path d="M30.383 98.1663L31.3682 96.4257L30.383 98.1663ZM25.5724 68.9942L27.5273 69.4168L27.9133 67.6311L26.1697 67.0854L25.5724 68.9942ZM57.1918 87.4161L58.5399 85.9387L57.1659 84.685L55.816 85.9646L57.1918 87.4161ZM84.285 97.7171L83.2892 95.9826L84.285 97.7171ZM88.6186 68.8449L88.0166 66.9376L86.2519 67.4947L86.6705 69.2973L88.6186 68.8449ZM88.5582 32.2654L86.6063 31.8291L86.2013 33.6415L87.9787 34.1796L88.5582 32.2654ZM83.9979 3.44259L83.0127 5.18312L83.0127 5.18312L83.9979 3.44259ZM56.9655 13.8452L55.6021 15.3084L56.9562 16.5702L58.319 15.3176L56.9655 13.8452ZM30.0947 3.32145L31.0904 5.05595L30.0947 3.32145ZM25.3434 32.212L25.9256 34.1254L27.6876 33.5894L27.2982 31.7892L25.3434 32.212ZM31.3682 96.4257C29.0022 95.0866 27.2086 92.0941 26.4449 87.3078C25.6888 82.5694 26.0123 76.4249 27.5273 69.4168L23.6176 68.5716C22.0363 75.8863 21.6361 82.5568 22.4949 87.9381C23.3459 93.2716 25.5058 97.7038 29.3979 99.9068L31.3682 96.4257ZM55.816 85.9646C50.7158 90.7988 45.766 94.1912 41.4441 95.9577C37.0841 97.7398 33.6998 97.7455 31.3682 96.4257L29.3979 99.9068C33.256 102.091 38.0656 101.66 42.9575 99.6604C47.8873 97.6454 53.247 93.9109 58.5677 88.8677L55.816 85.9646ZM55.8438 88.8935C61.2532 93.8295 66.6976 97.4525 71.6827 99.3786C76.6262 101.289 81.457 101.647 85.2807 99.4516L83.2892 95.9826C80.9654 97.3167 77.5436 97.3549 73.1243 95.6474C68.7467 93.956 63.7183 90.6639 58.5399 85.9387L55.8438 88.8935ZM85.2807 99.4516C89.1552 97.2274 91.2375 92.8195 91.9953 87.5347C92.7591 82.2072 92.2447 75.618 90.5668 68.3925L86.6705 69.2973C88.2796 76.2266 88.7065 82.2893 88.0358 86.967C87.3589 91.6874 85.631 94.6383 83.2892 95.9826L85.2807 99.4516ZM89.2206 70.7521C96.2867 68.5218 102.22 65.5932 106.43 62.2105C110.605 58.8571 113.362 54.818 113.362 50.3748H109.362C109.362 53.0754 107.665 56.0882 103.925 59.0922C100.222 62.0671 94.784 64.8016 88.0166 66.9376L89.2206 70.7521ZM113.362 50.3748C113.362 45.9155 110.586 41.9216 106.394 38.6372C102.168 35.3264 96.2171 32.4943 89.1376 30.3511L87.9787 34.1796C94.7671 36.2347 100.218 38.8801 103.927 41.7859C107.67 44.7181 109.362 47.6797 109.362 50.3748H113.362ZM83.0127 5.18312C85.3229 6.49067 87.0757 9.41666 87.8009 14.1327C88.519 18.802 88.161 24.8726 86.6063 31.8291L90.51 32.7016C92.1328 25.4403 92.5721 18.8415 91.7545 13.5247C90.944 8.25481 88.828 3.87832 84.9831 1.70205L83.0127 5.18312ZM58.319 15.3176C63.4886 10.5658 68.5169 7.26963 72.8895 5.57112C77.3076 3.85499 80.7206 3.88573 83.0127 5.18312L84.9831 1.70206C81.1894 -0.445189 76.3741 -0.0735731 71.4412 1.84254C66.463 3.77626 61.018 7.40365 55.6121 12.3727L58.319 15.3176ZM58.329 12.3819C52.9517 7.3713 47.5479 3.69841 42.6021 1.7361C37.6983 -0.209549 32.9002 -0.595262 29.099 1.58694L31.0904 5.05595C33.374 3.74501 36.7481 3.71682 41.1269 5.45414C45.4637 7.1748 50.4529 10.5103 55.6021 15.3084L58.329 12.3819ZM29.099 1.58694C25.2892 3.77404 23.1516 8.15684 22.3 13.4352C21.4402 18.7637 21.8178 25.3727 23.3886 32.6348L27.2982 31.7892C25.7954 24.8414 25.4926 18.7595 26.2489 14.0724C27.0132 9.3352 28.7881 6.37765 31.0904 5.05595L29.099 1.58694ZM24.7613 30.2986C17.646 32.4633 11.6897 35.331 7.46752 38.6609C3.2825 41.9615 0.517578 45.9579 0.517578 50.3748H4.51758C4.51758 47.721 6.19962 44.7552 9.94454 41.8017C13.6523 38.8775 19.1089 36.1992 25.9256 34.1254L24.7613 30.2986ZM0.517578 50.3748C0.517578 54.8058 3.30145 58.8735 7.51912 62.2597C11.7782 65.6792 17.7897 68.6544 24.9751 70.9029L26.1697 67.0854C19.2918 64.9332 13.7758 62.1533 10.0233 59.1406C6.22943 56.0946 4.51758 53.0531 4.51758 50.3748H0.517578Z" fill="white" mask="url(#path-1-outside-1)"></path><path d="M111.295 50.4797C111.295 43.2688 102.27 36.435 88.435 32.1972C91.6278 18.086 90.2087 6.85907 83.9562 3.26469C82.515 2.42156 80.8299 2.02219 78.9896 2.02219V6.97C80.0095 6.97 80.8299 7.16969 81.5172 7.54688C84.5327 9.27751 85.8408 15.8672 84.8209 24.3428C84.577 26.4285 84.1779 28.625 83.6901 30.866C79.3444 29.801 74.5995 28.98 69.6107 28.4475C66.6175 24.3428 63.5134 20.6153 60.3871 17.3538C67.6152 10.6309 74.3999 6.94782 79.0118 6.94782V2C72.9144 2 64.9324 6.34876 56.8617 13.8925C48.791 6.39313 40.809 2.08875 34.7117 2.08875V7.03657C39.3013 7.03657 46.1082 10.6975 53.3363 17.376C50.2322 20.6375 47.1281 24.3428 44.1792 28.4475C39.1683 28.98 34.4234 29.801 30.0777 30.8882C29.5677 28.6694 29.1908 26.5172 28.9247 24.4538C27.8826 15.9781 29.1686 9.38844 32.1618 7.63563C32.827 7.23626 33.6917 7.05875 34.7117 7.05875V2.11094C32.8492 2.11094 31.1641 2.51031 29.7007 3.35344C23.4703 6.94782 22.0735 18.1525 25.2885 32.2194C11.4973 36.4794 2.51758 43.291 2.51758 50.4797C2.51758 57.6907 11.5417 64.5244 25.3771 68.7623C22.1843 82.8735 23.6034 94.1004 29.8559 97.6948C31.2971 98.5379 32.9822 98.9373 34.8447 98.9373C40.9421 98.9373 48.9241 94.5885 56.9947 87.0448C65.0654 94.5441 73.0474 98.8485 79.1448 98.8485C81.0073 98.8485 82.6924 98.4492 84.1557 97.606C90.3861 94.0116 91.783 82.8069 88.568 68.7401C102.315 64.5022 111.295 57.6685 111.295 50.4797ZM82.4263 35.6807C81.6059 38.5428 80.586 41.4938 79.433 44.4447C78.524 42.6697 77.5706 40.8947 76.5285 39.1197C75.5086 37.3447 74.4221 35.6141 73.3357 33.9278C76.4841 34.3938 79.5217 34.9707 82.4263 35.6807ZM72.2714 59.3104C70.542 62.3057 68.7682 65.1457 66.9279 67.786C63.6242 68.0744 60.2762 68.2298 56.9061 68.2298C53.5581 68.2298 50.21 68.0744 46.9286 67.8082C45.0883 65.1679 43.2923 62.3501 41.5629 59.3769C39.8778 56.4704 38.3479 53.5194 36.951 50.5463C38.3257 47.5732 39.8778 44.6 41.5407 41.6935C43.2701 38.6982 45.0439 35.8582 46.8842 33.2178C50.1879 32.9294 53.5359 32.7741 56.9061 32.7741C60.2541 32.7741 63.6021 32.9294 66.8836 33.1957C68.7239 35.836 70.5198 38.6538 72.2492 41.6269C73.9343 44.5335 75.4642 47.4844 76.8611 50.4575C75.4642 53.4307 73.9343 56.4038 72.2714 59.3104ZM79.433 56.426C80.6303 59.3991 81.6503 62.3722 82.4928 65.2566C79.5882 65.9666 76.5285 66.5657 73.3578 67.0316C74.4443 65.3232 75.5307 63.5704 76.5507 61.7732C77.5706 59.9982 78.524 58.201 79.433 56.426ZM56.9504 80.1001C54.8884 77.9701 52.8264 75.596 50.7865 73.0001C52.782 73.0888 54.8219 73.1554 56.8839 73.1554C58.9681 73.1554 61.0301 73.111 63.0478 73.0001C61.0523 75.596 58.9902 77.9701 56.9504 80.1001ZM40.4543 67.0316C37.3058 66.5657 34.2682 65.9888 31.3636 65.2788C32.184 62.4166 33.2039 59.4657 34.3569 56.5147C35.266 58.2897 36.2194 60.0647 37.2615 61.8397C38.3036 63.6147 39.3678 65.3454 40.4543 67.0316ZM56.8395 20.8594C58.9016 22.9894 60.9636 25.3635 63.0034 27.9594C61.0079 27.8706 58.9681 27.8041 56.9061 27.8041C54.8219 27.8041 52.7599 27.8485 50.7422 27.9594C52.7377 25.3635 54.7997 22.9894 56.8395 20.8594ZM40.4321 33.9278C39.3457 35.6363 38.2592 37.3891 37.2393 39.1863C36.2194 40.9613 35.266 42.7363 34.3569 44.5113C33.1596 41.5382 32.1397 38.565 31.2971 35.6807C34.2017 34.9928 37.2615 34.3938 40.4321 33.9278ZM20.3662 61.7066C12.5173 58.3563 7.43981 53.9632 7.43981 50.4797C7.43981 46.9963 12.5173 42.581 20.3662 39.2528C22.273 38.4319 24.3572 37.6997 26.5079 37.0119C27.7717 41.3607 29.4347 45.8869 31.4967 50.5241C29.4568 55.1391 27.8161 59.6432 26.5745 63.9697C24.3794 63.2819 22.2952 62.5276 20.3662 61.7066ZM32.2949 93.4126C29.2795 91.682 27.9713 85.0923 28.9912 76.6166C29.2351 74.531 29.6342 72.3344 30.122 70.0935C34.4678 71.1585 39.2126 71.9794 44.2014 72.5119C47.1946 76.6166 50.2987 80.3441 53.425 83.6057C46.1969 90.3285 39.4122 94.0117 34.8003 94.0117C33.8026 93.9895 32.9601 93.7898 32.2949 93.4126ZM84.8874 76.5057C85.9295 84.9813 84.6435 91.571 81.6503 93.3238C80.9851 93.7232 80.1204 93.9007 79.1005 93.9007C74.5108 93.9007 67.7039 90.2398 60.4758 83.5613C63.5799 80.2998 66.684 76.5945 69.6329 72.4898C74.6438 71.9573 79.3887 71.1363 83.7345 70.0491C84.2444 72.2901 84.6435 74.4422 84.8874 76.5057ZM93.4237 61.7066C91.5169 62.5276 89.4327 63.2598 87.282 63.9476C86.0182 59.5988 84.3553 55.0725 82.2933 50.4354C84.3331 45.8204 85.9739 41.3163 87.2155 36.9897C89.4105 37.6775 91.4947 38.4319 93.4459 39.2528C101.295 42.6032 106.372 46.9963 106.372 50.4797C106.35 53.9632 101.273 58.3785 93.4237 61.7066Z" fill="#61DAFB"></path><path d="M57.2059 59.9493C62.8021 59.9493 67.3387 55.4096 67.3387 49.8096C67.3387 44.2096 62.8021 39.6699 57.2059 39.6699C51.6098 39.6699 47.0732 44.2096 47.0732 49.8096C47.0732 55.4096 51.6098 59.9493 57.2059 59.9493Z" fill="#61DAFB"></path></svg>